<svg xmlns="http://www.w3.org/2000/svg" viewBox="0 0 90 90"><defs><style>.cls-1{fill:#ffd900;}</style></defs><title>cloud-sun</title><g id="sun"><path class="cls-1" d="M45,24.35A20.65,20.65,0,1,0,65.65,45,20.67,20.67,0,0,0,45,24.35Z"/><rect class="cls-1" x="42.2" y="6.5" width="5.59" height="13.89" rx="0.65" ry="0.65"/><path class="cls-1" d="M30,24.53a.64.64,0,0,0,.39.3l.17,0a.63.63,0,0,0,.32-.09l3.73-2.15a.65.65,0,0,0,.24-.88l-6.3-10.91a.65.65,0,0,0-.88-.24l-3.73,2.15a.64.64,0,0,0-.3.39.65.65,0,0,0,.06.49Z"/><path class="cls-1" d="M10.82,28.49l10.92,6.3a.65.65,0,0,0,.88-.24l2.15-3.73a.65.65,0,0,0-.24-.88l-10.92-6.3a.63.63,0,0,0-.49-.06.64.64,0,0,0-.39.3l-2.15,3.73A.65.65,0,0,0,10.82,28.49Z"/><rect class="cls-1" x="6.5" y="42.2" width="13.89" height="5.59" rx="0.65" ry="0.65"/><path class="cls-1" d="M24.77,59.17l-2.15-3.73a.65.65,0,0,0-.88-.24L10.82,61.5a.65.65,0,0,0-.24.88l2.15,3.73a.64.64,0,0,0,.39.3l.17,0a.64.64,0,0,0,.32-.09L24.53,60A.65.65,0,0,0,24.77,59.17Z"/><path class="cls-1" d="M34.56,67.38l-3.73-2.15a.65.65,0,0,0-.88.24l-6.3,10.91a.64.64,0,0,0,.24.88l3.73,2.15a.63.63,0,0,0,.32.09l.17,0a.64.64,0,0,0,.39-.3l6.3-10.92a.65.65,0,0,0-.24-.88Z"/><rect class="cls-1" x="42.2" y="69.6" width="5.59" height="13.9" rx="0.65" ry="0.65"/><path class="cls-1" d="M60,65.47a.65.65,0,0,0-.88-.24l-3.73,2.15a.65.65,0,0,0-.24.88l6.3,10.92a.64.64,0,0,0,.39.3l.17,0a.63.63,0,0,0,.32-.09l3.73-2.15a.64.64,0,0,0,.24-.88Z"/><path class="cls-1" d="M79.18,61.5,68.27,55.2a.63.63,0,0,0-.49-.06.64.64,0,0,0-.39.3l-2.15,3.73a.65.65,0,0,0,.24.88l10.92,6.3a.64.64,0,0,0,.32.09l.17,0a.64.64,0,0,0,.39-.3l2.15-3.73A.65.65,0,0,0,79.18,61.5Z"/><rect class="cls-1" x="69.61" y="42.2" width="13.89" height="5.59" rx="0.65" ry="0.65"/><path class="cls-1" d="M65.17,30.34a.65.65,0,0,0,.07.49l2.15,3.73a.64.64,0,0,0,.56.32.66.66,0,0,0,.32-.09l10.92-6.3a.64.64,0,0,0,.3-.39.65.65,0,0,0-.06-.49l-2.15-3.73a.65.65,0,0,0-.88-.24L65.47,30A.64.64,0,0,0,65.17,30.34Z"/><path class="cls-1" d="M55.44,22.61l3.73,2.15a.63.63,0,0,0,.32.09l.17,0a.64.64,0,0,0,.39-.3l6.3-10.92a.65.65,0,0,0,.06-.49.64.64,0,0,0-.3-.39l-3.73-2.15a.65.65,0,0,0-.88.24L55.2,21.73A.64.64,0,0,0,55.44,22.61Z"/></g></svg>